<?xml version="1.0" encoding="UTF-8"?><svg id="Layer_1" xmlns="http://www.w3.org/2000/svg" viewBox="0 0 755.98 562.71"><defs><style>.cls-1{fill:#5ceaca;}</style></defs><path class="cls-1" d="M551.47,457.6c0,9.45-2.01,16.64-6.03,21.55s-9.48,7.37-16.37,7.37h-66.06v65.07c0,1.85-1.15,3.48-3.45,4.87-2.3,1.39-6.32,2.55-12.06,3.48-5.74,.93-13.21,1.62-22.4,2.09-9.19,.46-21.06,.7-35.62,.7-13.79,0-25.37-.23-34.75-.7-9.38-.46-16.85-1.16-22.4-2.09s-9.38-2.09-11.49-3.48c-2.11-1.39-3.16-3.01-3.16-4.87v-65.07H33.32c-5.36,0-10.15-.32-14.36-.97-4.21-.65-7.75-2.13-10.63-4.45-2.87-2.32-4.98-5.65-6.32-10.01-1.34-4.36-2.01-10.15-2.01-17.38,0-5.93,.29-11.08,.86-15.43,.57-4.36,1.53-8.3,2.87-11.82,1.34-3.52,3.26-6.86,5.74-10.01,2.49-3.15,5.65-6.49,9.48-10.01L249.88,209.3c1.91-1.67,5.17-3.11,9.77-4.31s11.01-2.22,19.24-3.06,18.67-1.44,31.31-1.81c12.64-.37,27.96-.56,45.96-.56,19.53,0,36.19,.23,49.98,.7,13.79,.46,24.8,1.2,33.03,2.22,8.23,1.02,14.27,2.27,18.09,3.75,3.83,1.48,5.74,3.24,5.74,5.28v216.61h66.06c6.13,0,11.39,2.27,15.8,6.81,4.4,4.54,6.61,12.1,6.61,22.66Zm-233.8-194.92h-1.15L120.63,428.13h197.03v-165.45Z"/><path class="cls-1" d="M736.23,111.3c-13.17-24.32-32.38-44.74-57.65-61.26-25.26-16.52-56.35-29-93.25-37.41C548.43,4.21,503.49,0,450.52,0h-152.5c-10.11,0-18.6,2.03-25.49,6.08-6.89,4.05-10.33,10.65-10.33,19.8V170.97h120.35V64.23h61.09c37.05,0,66.99,3.38,89.8,10.13,22.81,6.76,41.49,16.16,56.04,28.22,14.55,12.06,25.11,26.29,31.69,42.71,6.58,16.42,9.88,34.19,9.88,53.31,0,23.28-3.75,43.65-11.25,61.11-7.5,17.46-18.83,32.06-33.99,43.8-15.16,11.74-34.07,20.53-56.73,26.35-.47,.12-.98,.22-1.45,.34v68.93c17.29-1.86,33.5-4.31,48.54-7.38,38.12-7.79,70.51-20.01,97.15-36.63,26.64-16.63,47.08-38.09,61.32-64.38,14.24-26.29,21.36-57.94,21.36-94.94,0-32.01-6.58-60.17-19.75-84.49Z"/></svg>